<?xml version="1.0" encoding="utf-8"?>
<!-- Generator: Adobe Illustrator 16.0.0, SVG Export Plug-In . SVG Version: 6.00 Build 0)  -->
<!DOCTYPE svg PUBLIC "-//W3C//DTD SVG 1.1//EN" "http://www.w3.org/Graphics/SVG/1.1/DTD/svg11.dtd">
<svg version="1.1" id="Layer_1" xmlns:sketch="http://www.bohemiancoding.com/sketch/ns"
	 xmlns="http://www.w3.org/2000/svg" xmlns:xlink="http://www.w3.org/1999/xlink" x="0px" y="0px" width="141px" height="113.525px"
	 viewBox="0 0 141 113.525" enable-background="new 0 0 141 113.525" xml:space="preserve">
<title>ruby-shapre</title>
<description>Created with Sketch (http://www.bohemiancoding.com/sketch)</description>
<g>
	<polygon fill="#6E1835" points="141,30.951 120.139,0 20.861,0 0,30.951 70.464,113.525 70.536,113.525 	"/>
	<polygon fill="#8D1E40" points="141,30.951 120.139,0 20.861,0 0,30.951 	"/>
	<polyline fill="#AC224E" points="70.391,0.095 39.384,30.951 20.861,0.095 	"/>
	<polyline fill="#AC224E" points="70.609,0.095 101.616,30.951 120.139,0.095 	"/>
	<polyline fill="#AC224E" points="39.384,30.951 70.464,113.525 70.536,113.525 101.616,30.951 	"/>
	<g>
		<path fill="#F4F4F4" d="M29.924,23.98H24.9c-0.184,0-0.332,0.147-0.332,0.331v13.282c0,0.183,0.148,0.331,0.332,0.331h5.023
			c1.034,0,1.935-0.376,2.677-1.118c0.741-0.742,1.117-1.642,1.117-2.676v-0.591c0-0.526-0.114-1.041-0.342-1.53
			c-0.174-0.378-0.408-0.728-0.697-1.044c0.274-0.273,0.503-0.61,0.685-1.007c0.234-0.518,0.354-1.061,0.354-1.613v-0.59
			c0-1.021-0.378-1.915-1.123-2.657C31.849,24.355,30.951,23.98,29.924,23.98z M29.924,29.755h-2.973v-3.393h2.973
			c0.387,0,0.711,0.136,0.993,0.416c0.281,0.278,0.417,0.597,0.417,0.976v0.611c0,0.386-0.134,0.707-0.411,0.981
			C30.645,29.621,30.317,29.755,29.924,29.755z M26.951,32.138h2.973c0.387,0,0.711,0.135,0.993,0.415
			c0.281,0.278,0.417,0.601,0.417,0.986v0.61c0,0.386-0.134,0.707-0.411,0.981c-0.278,0.276-0.605,0.411-0.999,0.411h-2.973V32.138z
			"/>
		<path fill="#F4F4F4" d="M47.286,26.362c0.364,0,0.671-0.111,0.913-0.331c0.248-0.226,0.378-0.522,0.378-0.86
			c0-0.345-0.128-0.644-0.373-0.866c-0.239-0.216-0.549-0.326-0.918-0.326h-7.527c-0.183,0-0.329,0.147-0.329,0.331v13.282
			c0,0.183,0.146,0.331,0.329,0.331h7.527c0.362,0,0.669-0.108,0.91-0.324c0.25-0.222,0.381-0.522,0.381-0.867
			s-0.128-0.644-0.373-0.866c-0.239-0.216-0.549-0.326-0.918-0.326h-5.475v-3.403h2.772c0.364,0,0.67-0.11,0.906-0.328
			c0.238-0.221,0.366-0.52,0.366-0.863c0-0.344-0.128-0.642-0.367-0.864c-0.235-0.217-0.541-0.328-0.905-0.328h-2.772v-3.393H47.286
			z"/>
		<path fill="#F4F4F4" d="M62.146,35.541h-5.476V25.271c0-0.364-0.11-0.67-0.33-0.913c-0.225-0.248-0.522-0.378-0.861-0.378
			c-0.351,0-0.651,0.127-0.869,0.369c-0.214,0.236-0.322,0.546-0.322,0.922v12.321c0,0.183,0.148,0.331,0.332,0.331h7.526
			c0.362,0,0.669-0.108,0.91-0.324c0.249-0.222,0.381-0.522,0.381-0.867s-0.129-0.644-0.374-0.866
			C62.825,35.65,62.517,35.541,62.146,35.541z"/>
		<path fill="#F4F4F4" d="M76.676,23.98h-7.526c-0.184,0-0.331,0.147-0.331,0.331v11.99c0,0.647,0.085,0.973,0.324,1.241
			c0.222,0.25,0.521,0.381,0.867,0.381s0.644-0.129,0.866-0.374c0.216-0.239,0.324-0.547,0.324-0.918v-6.255h3.794
			c0.356,0,0.66-0.109,0.898-0.326c0.244-0.222,0.374-0.521,0.374-0.866c0-0.344-0.127-0.642-0.367-0.864
			c-0.235-0.217-0.541-0.328-0.905-0.328H71.2v-1.631h5.476c0.364,0,0.671-0.111,0.913-0.331c0.248-0.226,0.379-0.522,0.379-0.86
			c0-0.345-0.129-0.644-0.375-0.866C77.354,24.089,77.046,23.98,76.676,23.98z"/>
		<path fill="#F4F4F4" d="M89.431,36.328l-3.243-11.143c-0.117-0.437-0.265-0.736-0.452-0.915c-0.203-0.193-0.469-0.291-0.789-0.291
			c-0.328,0-0.599,0.103-0.807,0.305c-0.187,0.183-0.335,0.477-0.453,0.903L80.445,36.31c-0.018,0.063-0.03,0.128-0.04,0.192
			c-0.008,0.06-0.013,0.15-0.013,0.27c0,0.31,0.115,0.582,0.343,0.809c0.227,0.227,0.499,0.342,0.809,0.342
			c0.297,0,0.55-0.083,0.754-0.249c0.193-0.157,0.342-0.393,0.443-0.708l0.581-1.936h3.259l0.57,1.94
			c0.077,0.278,0.223,0.506,0.433,0.681c0.217,0.18,0.468,0.271,0.746,0.271c0.315,0,0.592-0.114,0.822-0.34
			c0.229-0.224,0.349-0.511,0.349-0.832c0-0.062-0.006-0.135-0.02-0.212C89.47,36.461,89.45,36.384,89.431,36.328z M85.894,32.647
			h-1.911l0.962-3.07L85.894,32.647z"/>
		<path fill="#F4F4F4" d="M100.561,26.427c0.068,0.054,0.08,0.088,0.082,0.102c0.103,0.498,0.237,0.814,0.424,0.997
			c0.196,0.191,0.466,0.289,0.802,0.289c0.344,0,0.645-0.13,0.865-0.374c0.216-0.239,0.326-0.547,0.326-0.918
			c0-0.664-0.269-1.261-0.797-1.773c-0.525-0.51-1.149-0.769-1.856-0.769h-4.244c-0.616,0-1.149,0.223-1.59,0.662
			c-0.439,0.44-0.662,0.975-0.662,1.59c0,0.268,0.052,0.534,0.153,0.792c0.097,0.246,0.245,0.504,0.433,0.753l6.066,7.763h-4.01
			c-0.016,0-0.064,0-0.145-0.063c-0.046-0.037-0.076-0.074-0.083-0.109c-0.11-0.496-0.248-0.811-0.432-0.99
			c-0.197-0.192-0.464-0.29-0.791-0.29c-0.346,0-0.645,0.129-0.867,0.374c-0.216,0.239-0.325,0.547-0.325,0.917
			c0,0.658,0.268,1.252,0.795,1.768c0.525,0.514,1.147,0.774,1.848,0.774h4.244c0.621,0,1.161-0.223,1.6-0.663
			c0.44-0.439,0.663-0.974,0.663-1.59c0-0.267-0.053-0.533-0.154-0.792c-0.098-0.248-0.246-0.505-0.433-0.753l-6.066-7.763h4
			C100.438,26.362,100.489,26.369,100.561,26.427z"/>
		<path fill="#F4F4F4" d="M116.928,23.98h-8.488c-0.183,0-0.33,0.147-0.33,0.331v2.211c0,0.362,0.108,0.669,0.323,0.911
			c0.222,0.25,0.521,0.381,0.868,0.381c0.344,0,0.644-0.13,0.865-0.374c0.217-0.239,0.325-0.547,0.325-0.918v-0.16h1.001v10.269
			c0,0.363,0.108,0.669,0.324,0.91c0.221,0.25,0.522,0.381,0.867,0.381s0.645-0.129,0.865-0.374
			c0.216-0.239,0.326-0.547,0.326-0.918V26.362h1v0.16c0,0.362,0.108,0.669,0.324,0.911c0.221,0.25,0.521,0.381,0.867,0.381
			c0.345,0,0.644-0.13,0.865-0.374c0.217-0.239,0.325-0.547,0.325-0.918v-2.211C117.257,24.127,117.11,23.98,116.928,23.98z"/>
	</g>
	<g>
		<path fill="#F4F4F4" d="M50.952,49.222h-5.886c-0.183,0-0.329,0.147-0.329,0.331v10.451c0,2.232,0.108,2.537,0.323,2.779
			c0.222,0.25,0.521,0.383,0.867,0.383c0.346,0,0.645-0.131,0.866-0.375c0.216-0.238,0.326-0.547,0.326-0.918v-4.488h0.699
			l3.785,5.102c0.114,0.203,0.268,0.361,0.455,0.479c0.192,0.121,0.406,0.182,0.635,0.182c0.329,0,0.613-0.119,0.845-0.35
			c0.229-0.23,0.346-0.512,0.346-0.842c0-0.102-0.019-0.213-0.056-0.326c-0.035-0.105-0.088-0.215-0.15-0.316l-3.104-3.928h0.378
			c0.809,0,1.508-0.289,2.077-0.861c0.568-0.574,0.855-1.27,0.855-2.071v-2.318c0-0.795-0.292-1.487-0.868-2.057
			C52.44,49.51,51.746,49.222,50.952,49.222z M47.12,51.604h3.832c0.139,0,0.255,0.053,0.367,0.163
			c0.111,0.112,0.163,0.229,0.163,0.367v2.318c0,0.143-0.052,0.265-0.164,0.383c-0.109,0.114-0.224,0.168-0.366,0.168H47.12V51.604z
			"/>
		<path fill="#F4F4F4" d="M67.224,49.222c-0.352,0-0.652,0.127-0.871,0.369c-0.212,0.236-0.32,0.545-0.32,0.923v9.738
			c0,0.137-0.054,0.252-0.17,0.363c-0.118,0.113-0.239,0.166-0.38,0.166h-3.304c-0.146,0-0.266-0.049-0.373-0.156
			c-0.106-0.102-0.156-0.221-0.156-0.373v-9.738c0-0.364-0.111-0.672-0.332-0.914c-0.225-0.247-0.522-0.378-0.859-0.378
			c-0.353,0-0.653,0.127-0.872,0.369c-0.212,0.236-0.32,0.545-0.32,0.923v9.738c0,0.803,0.289,1.496,0.858,2.061
			c0.569,0.566,1.268,0.854,2.075,0.854h3.303c0.795,0,1.485-0.289,2.056-0.859c0.568-0.568,0.857-1.26,0.857-2.055v-9.738
			c0-0.364-0.111-0.672-0.331-0.914C67.858,49.353,67.562,49.222,67.224,49.222z"/>
		<path fill="#F4F4F4" d="M79.481,49.222h-5.024c-0.184,0-0.33,0.147-0.33,0.331v13.281c0,0.184,0.146,0.332,0.33,0.332h5.024
			c1.034,0,1.934-0.377,2.676-1.117c0.741-0.742,1.118-1.645,1.118-2.678v-0.592c0-0.523-0.114-1.039-0.341-1.527
			c-0.175-0.379-0.409-0.729-0.699-1.045c0.275-0.273,0.505-0.611,0.686-1.008c0.235-0.518,0.354-1.061,0.354-1.613v-0.591
			c0-1.021-0.379-1.914-1.124-2.657C81.407,49.598,80.508,49.222,79.481,49.222z M79.481,54.998h-2.974v-3.394h2.974
			c0.387,0,0.712,0.136,0.993,0.416c0.281,0.278,0.419,0.597,0.419,0.976v0.61c0,0.385-0.136,0.707-0.414,0.981
			C80.201,54.863,79.875,54.998,79.481,54.998z M76.508,57.381h2.974c0.387,0,0.712,0.135,0.993,0.414
			c0.281,0.277,0.419,0.6,0.419,0.984v0.613c0,0.385-0.136,0.707-0.414,0.98c-0.278,0.275-0.604,0.408-0.998,0.408h-2.974V57.381z"
			/>
		<path fill="#F4F4F4" d="M97.148,49.595c-0.222-0.244-0.521-0.373-0.866-0.373s-0.646,0.132-0.867,0.38
			c-0.215,0.242-0.324,0.55-0.324,0.912v0.971l-2.19,2.653l-2.192-2.653v-0.971c0-0.364-0.111-0.672-0.331-0.914
			c-0.224-0.247-0.522-0.378-0.86-0.378c-0.352,0-0.652,0.127-0.871,0.369c-0.212,0.236-0.32,0.545-0.32,0.923v1.66
			c0,0.066,0.021,0.133,0.059,0.188l3.325,4.181v5.33c0,0.363,0.108,0.668,0.323,0.91c0.222,0.25,0.521,0.383,0.868,0.383
			c0.345,0,0.644-0.131,0.865-0.375c0.216-0.238,0.326-0.547,0.326-0.918v-5.33l3.325-4.181c0.037-0.055,0.057-0.121,0.057-0.188
			v-1.66C97.474,50.144,97.365,49.834,97.148,49.595z"/>
	</g>
</g>
</svg>
