<?xml version="1.0" encoding="utf-8"?>
<!-- Generator: Adobe Illustrator 16.0.0, SVG Export Plug-In . SVG Version: 6.00 Build 0)  -->
<!DOCTYPE svg PUBLIC "-//W3C//DTD SVG 1.1//EN" "http://www.w3.org/Graphics/SVG/1.1/DTD/svg11.dtd">
<svg version="1.1" id="Layer_1" xmlns:sketch="http://www.bohemiancoding.com/sketch/ns"
	 xmlns="http://www.w3.org/2000/svg" xmlns:xlink="http://www.w3.org/1999/xlink" x="0px" y="0px" width="141px" height="111px"
	 viewBox="0 0 141 111" enable-background="new 0 0 141 111" xml:space="preserve">
<title>ruby-shapre</title>
<description>Created with Sketch (http://www.bohemiancoding.com/sketch)</description>
<g id="Page-1" sketch:type="MSPage">
	<g id="BR-logo" transform="translate(0.000000, -1.000000)" sketch:type="MSLayerGroup">
		<path id="Fill-1" sketch:type="MSShapeGroup" fill="#6E1835" d="M141,31.476L120.137,1.667H20.862L0,31.476L70.463,111h0.074
			L141,31.476"/>
		<path id="Fill-2" sketch:type="MSShapeGroup" fill="#8D1E40" d="M141,31L120.137,1H20.862L0,31H141"/>
		<path id="Fill-3" sketch:type="MSShapeGroup" fill="#AC224E" d="M71,1L39.697,31L21,1"/>
		<path id="Fill-4" sketch:type="MSShapeGroup" fill="#AC224E" d="M70.137,1l31.303,30l18.697-30"/>
		<path id="Fill-5" sketch:type="MSShapeGroup" fill="#A42249" d="M39.574,31l30.963,80h0.075l30.962-80"/>
		<path id="Fill-6" sketch:type="MSShapeGroup" fill="#F2F1EE" d="M30.267,24h-4.942C25.146,24,25,24.138,25,24.308v12.385
			C25,36.861,25.146,37,25.325,37h4.942c1.017,0,1.902-0.351,2.633-1.042c0.729-0.69,1.1-1.531,1.1-2.495v-0.552
			c0-0.488-0.115-0.969-0.338-1.425c-0.171-0.352-0.401-0.679-0.685-0.974c0.271-0.254,0.497-0.57,0.673-0.94
			c0.23-0.483,0.35-0.989,0.35-1.502v-0.552c0-0.951-0.373-1.785-1.105-2.477C32.16,24.351,31.276,24,30.267,24L30.267,24z
			 M29.711,29H27v-3h2.711c0.354,0,0.65,0.122,0.907,0.369C30.875,26.613,31,26.897,31,27.23v0.541c0,0.341-0.124,0.624-0.376,0.866
			C30.37,28.881,30.071,29,29.711,29L29.711,29z M27,32h2.711c0.354,0,0.65,0.119,0.907,0.366C30.875,32.609,31,32.895,31,33.234
			v0.54c0,0.339-0.124,0.624-0.376,0.864C30.37,34.881,30.071,35,29.711,35H27V32L27,32z"/>
		<path id="Fill-7" sketch:type="MSShapeGroup" fill="#F2F1EE" d="M47.729,26.221c0.359,0,0.66-0.102,0.898-0.308
			C48.87,25.705,49,25.427,49,25.111c0-0.321-0.128-0.599-0.369-0.808C48.397,24.103,48.093,24,47.729,24h-7.403
			C40.146,24,40,24.138,40,24.308v12.385C40,36.861,40.146,37,40.325,37h7.403c0.356,0,0.658-0.1,0.895-0.302
			C48.87,36.493,49,36.211,49,35.89s-0.128-0.6-0.369-0.807c-0.234-0.203-0.539-0.304-0.903-0.304h-5.385v-3.172h2.728
			c0.358,0,0.658-0.103,0.891-0.306c0.235-0.207,0.359-0.484,0.359-0.805c0-0.32-0.125-0.598-0.359-0.806
			c-0.233-0.202-0.533-0.306-0.891-0.306h-2.728v-3.163H47.729"/>
		<path id="Fill-8" sketch:type="MSShapeGroup" fill="#F2F1EE" d="M62.73,34.779h-5.388v-9.575c0-0.337-0.108-0.624-0.324-0.85
			C56.797,24.122,56.504,24,56.171,24c-0.345,0-0.642,0.118-0.855,0.343C55.104,24.563,55,24.853,55,25.204v11.488
			C55,36.861,55.146,37,55.324,37h7.406c0.355,0,0.657-0.1,0.894-0.302C63.87,36.493,64,36.211,64,35.89s-0.127-0.6-0.368-0.807
			C63.397,34.88,63.095,34.779,62.73,34.779"/>
		<path id="Fill-9" sketch:type="MSShapeGroup" fill="#F2F1EE" d="M76.73,24h-7.406C69.144,24,69,24.138,69,24.308V35.49
			c0,0.601,0.083,0.904,0.317,1.155C69.536,36.878,69.831,37,70.17,37c0.34,0,0.635-0.121,0.854-0.347
			c0.212-0.226,0.32-0.511,0.32-0.857v-5.831h3.731c0.352,0,0.648-0.104,0.883-0.306c0.24-0.207,0.37-0.486,0.37-0.807
			c0-0.32-0.126-0.597-0.362-0.803c-0.232-0.204-0.532-0.307-0.891-0.307h-3.731v-1.521h5.386c0.359,0,0.662-0.102,0.898-0.308
			C77.873,25.705,78,25.427,78,25.111c0-0.321-0.125-0.599-0.365-0.808C77.398,24.103,77.094,24,76.73,24"/>
		<path id="Fill-10" sketch:type="MSShapeGroup" fill="#F2F1EE" d="M88.931,35.514l-3.205-10.39
			c-0.115-0.407-0.263-0.687-0.447-0.852C85.08,24.092,84.816,24,84.5,24c-0.325,0-0.593,0.096-0.797,0.285
			c-0.187,0.169-0.333,0.445-0.45,0.841l-3.202,10.369c-0.017,0.061-0.029,0.12-0.038,0.178S80,35.815,80,35.928
			c0,0.29,0.111,0.542,0.336,0.754C80.561,36.892,80.831,37,81.137,37c0.295,0,0.543-0.078,0.746-0.23
			c0.19-0.148,0.336-0.368,0.438-0.662l0.572-1.803h3.222l0.563,1.809c0.076,0.258,0.22,0.472,0.428,0.635
			C87.32,36.917,87.566,37,87.844,37c0.311,0,0.586-0.104,0.812-0.317C88.881,36.473,89,36.207,89,35.907
			c0-0.058-0.006-0.125-0.02-0.197C88.969,35.637,88.951,35.566,88.931,35.514L88.931,35.514z M86,32h-2l1.007-3L86,32L86,32z"/>
		<path id="Fill-11" sketch:type="MSShapeGroup" fill="#F2F1EE" d="M100.545,26.28c0.066,0.051,0.074,0.083,0.078,0.096
			c0.101,0.466,0.234,0.76,0.418,0.929c0.193,0.179,0.458,0.27,0.787,0.27c0.339,0,0.631-0.12,0.852-0.348
			c0.213-0.224,0.32-0.511,0.32-0.858c0-0.618-0.263-1.175-0.783-1.651C101.7,24.242,101.086,24,100.391,24h-4.176
			c-0.604,0-1.131,0.207-1.563,0.618C94.219,25.029,94,25.525,94,26.101c0,0.25,0.051,0.497,0.15,0.737
			c0.096,0.229,0.243,0.47,0.426,0.702l5.971,7.239h-3.945c-0.02,0-0.064,0-0.144-0.058c-0.047-0.035-0.075-0.07-0.081-0.101
			c-0.109-0.463-0.244-0.758-0.426-0.925c-0.193-0.178-0.457-0.268-0.779-0.268c-0.339,0-0.631,0.12-0.852,0.347
			C94.109,33.996,94,34.285,94,34.631c0,0.611,0.264,1.167,0.783,1.647C95.301,36.756,95.91,37,96.602,37h4.174
			c0.611,0,1.141-0.207,1.572-0.617C102.781,35.974,103,35.474,103,34.9c0-0.25-0.05-0.497-0.15-0.738
			c-0.095-0.23-0.242-0.47-0.426-0.704l-5.969-7.237h3.936C100.423,26.221,100.471,26.227,100.545,26.28"/>
		<path id="Fill-12" sketch:type="MSShapeGroup" fill="#F2F1EE" d="M116.675,24h-8.349c-0.18,0-0.326,0.138-0.326,0.308v2.062
			c0,0.338,0.109,0.625,0.319,0.85c0.217,0.232,0.513,0.355,0.854,0.355c0.339,0,0.632-0.12,0.85-0.348
			c0.213-0.224,0.319-0.511,0.319-0.858v-0.149h0.984v9.575c0,0.338,0.108,0.624,0.319,0.849C111.865,36.878,112.16,37,112.5,37
			s0.635-0.121,0.854-0.347c0.211-0.226,0.32-0.511,0.32-0.857v-9.575h0.982v0.149c0,0.338,0.107,0.625,0.318,0.85
			c0.22,0.232,0.514,0.355,0.853,0.355c0.34,0,0.635-0.12,0.853-0.348c0.214-0.224,0.32-0.511,0.32-0.858v-2.062
			C117,24.138,116.856,24,116.675,24"/>
		<path id="Fill-13" sketch:type="MSShapeGroup" fill="#F2F1EE" d="M52.115,48h-5.791C46.144,48,46,48.138,46,48.309v9.746
			c0,2.08,0.107,2.365,0.318,2.59C46.535,60.879,46.832,61,47.171,61c0.341,0,0.634-0.121,0.852-0.348
			c0.213-0.223,0.322-0.51,0.322-0.856v-4.184h0.689l3.724,4.756c0.112,0.188,0.263,0.34,0.447,0.448
			c0.19,0.109,0.4,0.166,0.625,0.166c0.323,0,0.602-0.106,0.831-0.324C54.885,60.443,55,60.18,55,59.873
			c0-0.096-0.018-0.197-0.056-0.305c-0.033-0.096-0.086-0.198-0.148-0.295l-3.054-3.662h0.373c0.793,0,1.482-0.271,2.043-0.804
			C54.717,54.272,55,53.624,55,52.878v-2.162c0-0.741-0.287-1.386-0.854-1.917C53.579,48.269,52.896,48,52.115,48L52.115,48z M48,50
			h3.515c0.127,0,0.236,0.044,0.337,0.143C51.954,50.242,52,50.345,52,50.467v2.047c0,0.126-0.046,0.234-0.148,0.339
			C51.752,52.953,51.646,53,51.515,53H48V50L48,50z"/>
		<path id="Fill-14" sketch:type="MSShapeGroup" fill="#F2F1EE" d="M67.827,48c-0.345,0-0.641,0.12-0.856,0.345
			c-0.209,0.219-0.315,0.51-0.315,0.86v9.08c0,0.128-0.053,0.234-0.167,0.341c-0.115,0.104-0.235,0.156-0.374,0.156h-3.25
			c-0.145,0-0.262-0.048-0.369-0.146c-0.104-0.097-0.152-0.209-0.152-0.351v-9.08c0-0.34-0.112-0.625-0.326-0.852
			C61.796,48.122,61.502,48,61.17,48c-0.348,0-0.643,0.12-0.858,0.345C60.103,48.563,60,48.854,60,49.205v9.08
			c0,0.749,0.284,1.396,0.843,1.923C61.402,60.732,62.09,61,62.882,61h3.252c0.782,0,1.462-0.269,2.024-0.799
			C68.717,59.671,69,59.027,69,58.284v-9.08c0-0.34-0.11-0.625-0.327-0.852C68.454,48.122,68.16,48,67.827,48"/>
		<path id="Fill-15" sketch:type="MSShapeGroup" fill="#F2F1EE" d="M79.268,48h-4.942C74.145,48,74,48.138,74,48.309v12.384
			C74,60.861,74.145,61,74.325,61h4.942c1.018,0,1.902-0.351,2.633-1.041c0.729-0.691,1.1-1.53,1.1-2.496v-0.548
			c0-0.493-0.113-0.972-0.334-1.428c-0.174-0.352-0.404-0.679-0.689-0.975c0.271-0.254,0.498-0.569,0.675-0.938
			C82.883,53.091,83,52.585,83,52.069v-0.551c0-0.95-0.372-1.783-1.104-2.476C81.162,48.35,80.278,48,79.268,48L79.268,48z
			 M78.713,53H76v-3h2.713c0.353,0,0.65,0.118,0.906,0.366C79.877,50.61,80,50.894,80,51.228v0.542c0,0.341-0.123,0.624-0.375,0.866
			C79.369,52.882,79.071,53,78.713,53L78.713,53z M76,56h2.713c0.353,0,0.65,0.122,0.906,0.369C79.877,56.612,80,56.896,80,57.237
			v0.537c0,0.339-0.123,0.622-0.375,0.864C79.369,58.883,79.071,59,78.713,59H76V56L76,56z"/>
		<path id="Fill-16" sketch:type="MSShapeGroup" fill="#F2F1EE" d="M96.68,48.349C96.461,48.121,96.167,48,95.828,48
			c-0.342,0-0.635,0.124-0.852,0.356c-0.213,0.225-0.322,0.509-0.322,0.849v0.905l-2.156,2.476l-2.156-2.476v-0.905
			c0-0.34-0.107-0.625-0.323-0.852C89.797,48.122,89.503,48,89.17,48c-0.345,0-0.641,0.12-0.854,0.345
			c-0.21,0.219-0.315,0.51-0.315,0.86v1.549c0,0.062,0.02,0.123,0.057,0.174l3.27,3.897v4.971c0,0.339,0.107,0.624,0.32,0.849
			C91.865,60.879,92.159,61,92.498,61c0.34,0,0.635-0.121,0.854-0.348c0.213-0.223,0.319-0.51,0.319-0.856v-4.971l3.271-3.897
			C96.979,50.876,97,50.815,97,50.753v-1.549C97,48.858,96.893,48.571,96.68,48.349"/>
	</g>
</g>
</svg>
